<?xml version="1.0" encoding="utf-8"?>
<!-- Generator: Adobe Illustrator 17.0.1, SVG Export Plug-In . SVG Version: 6.00 Build 0)  -->
<!DOCTYPE svg PUBLIC "-//W3C//DTD SVG 1.1//EN" "http://www.w3.org/Graphics/SVG/1.1/DTD/svg11.dtd">
<svg version="1.1" id="Слой_1" xmlns="http://www.w3.org/2000/svg" xmlns:xlink="http://www.w3.org/1999/xlink" x="0px" y="0px"
	 width="33px" height="28px" viewBox="0 0 33 28" enable-background="new 0 0 33 28" xml:space="preserve">
<g>
	<path fill="#363D41" d="M15.231,24.182c0,2.108-1.706,3.818-3.808,3.818H3.808C1.706,28,0,26.29,0,24.182v-14
		C0,4.574,4.561,0,10.154,0h1.269c0.694,0,1.269,0.577,1.269,1.273v2.545c0,0.696-0.575,1.273-1.269,1.273h-1.269
		c-2.796,0-5.077,2.287-5.077,5.091v0.636c0,1.054,0.853,1.909,1.904,1.909h4.442c2.102,0,3.808,1.71,3.808,3.818V24.182z
		 M33,24.182C33,26.29,31.294,28,29.192,28h-7.615c-2.102,0-3.808-1.71-3.808-3.818v-14C17.769,4.574,22.331,0,27.923,0h1.269
		c0.694,0,1.269,0.577,1.269,1.273v2.545c0,0.696-0.575,1.273-1.269,1.273h-1.269c-2.796,0-5.077,2.287-5.077,5.091v0.636
		c0,1.054,0.852,1.909,1.903,1.909h4.443c2.102,0,3.808,1.71,3.808,3.818V24.182z"/>
</g>
</svg>
