<?xml version="1.0" encoding="utf-8"?>
<!-- Generator: Adobe Illustrator 17.0.1, SVG Export Plug-In . SVG Version: 6.00 Build 0)  -->
<!DOCTYPE svg PUBLIC "-//W3C//DTD SVG 1.1//EN" "http://www.w3.org/Graphics/SVG/1.1/DTD/svg11.dtd">
<svg version="1.1" id="Слой_1" xmlns="http://www.w3.org/2000/svg" xmlns:xlink="http://www.w3.org/1999/xlink" x="0px" y="0px"
	 width="30px" height="40px" viewBox="0 0 30 40" enable-background="new 0 0 30 40" xml:space="preserve">
<g id="Glyph_copy_2">
	<path fill="#51B09A" d="M21.789,14.473c0-3.478-3.045-6.306-6.792-6.306c-3.74,0-6.794,2.828-6.794,6.306
		c0,3.48,3.053,6.316,6.794,6.316C18.743,20.789,21.789,17.953,21.789,14.473z"/>
	<path fill="#51B09A" d="M14.997,40l2.748-3.356C20.626,33.088,30,20.999,30,14.386C30,5.786,23.971,0,14.997,0
		C6.029,0,0,5.786,0,14.386c0,7.119,11.009,20.732,12.261,22.257L14.997,40z M5.528,14.473c0-4.855,4.249-8.811,9.469-8.811
		c5.227,0,9.475,3.957,9.475,8.811c0,4.858-4.249,8.813-9.475,8.813C9.778,23.284,5.528,19.331,5.528,14.473z"/>
</g>
</svg>
